<svg width="42" height="42" viewBox="0 0 42 42" fill="#fff786" xmlns="http://www.w3.org/2000/svg">
    <path
        d="M22.4622 0.425981C22.1782 -0.141994 21.2552 -0.141994 20.9712 0.425981C18.5573 4.82779 16.3564 9.30059 15.0785 14.1284C14.9365 14.8384 15.7175 15.5483 16.3564 15.1223C17.7764 14.1284 18.9833 12.9214 20.0483 11.5015C19.7643 21.4411 18.4153 31.7356 20.7582 41.5332C20.9002 42.2432 22.1071 42.1012 22.0361 41.3911C20.7582 31.2385 21.7522 21.157 21.8941 11.0044C23.101 12.0694 24.308 13.1343 25.4439 14.1993C25.9409 14.6962 27.006 14.4123 26.935 13.5603C26.3669 8.87461 24.8049 4.4728 22.4622 0.425981ZM21.6812 8.87461C21.2552 8.23564 20.0483 8.37763 20.0483 9.37159C20.0483 9.44259 20.0483 9.51358 20.0483 9.51358C19.1963 10.3655 18.4153 11.2175 17.4924 12.0695C18.6283 8.80361 20.0483 5.75075 21.6811 2.69788C23.101 5.46676 24.166 8.30664 24.734 11.3595C23.953 10.6495 23.101 9.93956 22.3199 9.1586C22.1782 8.87461 21.8941 8.80361 21.6812 8.87461Z"
       />
</svg>