<svg width="71" height="71" viewBox="0 0 71 71" fill="none" xmlns="http://www.w3.org/2000/svg">
<g clip-path="url(#clip0)">
<path d="M68.6415 23.2295L40.3391 9.40363C37.8992 8.1837 33.7514 8.1837 31.3116 9.40363L2.35853 23.2295C0.325315 24.2055 0 25.588 0 26.32C0 27.052 0.325315 28.3532 2.35853 29.4105L4.71707 30.5491V43.5617C3.25315 44.131 2.19588 45.5949 2.19588 47.2215C2.19588 48.8481 3.25315 50.312 4.63574 50.8813L0.975945 62.5113H11.2234L7.56357 50.8813C9.02749 50.312 10.0034 48.8481 10.0034 47.2215C10.0034 45.5136 8.94616 44.131 7.48224 43.5617V31.9317L11.7927 34.0462V50.9626C11.7927 51.2066 11.874 51.4506 12.0367 51.6946C12.4433 52.1825 20.0069 62.5113 35.4593 62.5113C50.9118 62.5113 58.4754 52.1012 58.8007 51.6946C58.9633 51.4506 59.0447 51.2066 59.0447 50.9626V34.1276L68.6415 29.4105C70.6747 28.4346 71 27.052 71 26.32C70.9187 25.588 70.6747 24.2055 68.6415 23.2295ZM56.4422 50.556C55.1409 52.1825 48.1466 59.9901 35.4593 59.9901C22.772 59.9901 15.7778 52.1825 14.4765 50.556V35.1848L31.3116 43.2364C32.5315 43.8057 34.1581 44.131 35.7846 44.131C37.4926 44.131 39.1191 43.8057 40.3391 43.1551L56.4422 35.2662V50.556ZM67.5029 27.1333L57.7434 31.9317C57.3368 31.9317 57.0115 32.0943 56.8488 32.4197L39.2005 40.9592C37.4926 41.8538 34.1581 41.8538 32.3688 40.9592L10.6541 30.5491L35.622 27.6213C36.354 27.5399 36.8419 26.8893 36.7606 26.2387C36.6793 25.5067 36.0286 25.0187 35.378 25.1001L6.42497 28.5159L3.49714 27.1333C2.76518 26.808 2.60252 26.4013 2.60252 26.4013C2.60252 26.32 2.76518 25.9947 3.49714 25.6694L32.4502 11.7622C33.3448 11.3555 34.5647 11.1115 35.7846 11.1115C37.0859 11.1115 38.3872 11.3555 39.2005 11.7622L67.5029 25.588C68.2348 25.9134 68.3975 26.2387 68.3975 26.4013C68.3975 26.4013 68.1535 26.808 67.5029 27.1333Z" fill="#FFF786"/>
</g>
<defs>
<clipPath id="clip0">
<rect width="71" height="71" fill="white"/>
</clipPath>
</defs>
</svg>
