<svg width="60" height="60" viewBox="0 0 60 60" fill="none" xmlns="http://www.w3.org/2000/svg">
<g clip-path="url(#clip0)">
<path d="M50.342 34.2821L58.9873 24.575C59.7164 23.7538 60.078 22.67 59.9869 21.5756C59.8977 20.4816 59.3594 19.4733 58.5003 18.7909C56.7738 17.4658 54.3118 17.7258 52.9007 19.3827L46.3636 26.7216L36.6565 18.0768C35.8321 17.3427 34.5684 17.4154 33.8338 18.2398L2.69159 53.208C1.21043 54.8004 1.23607 57.2734 2.74972 58.8351C3.49533 59.5798 4.50641 59.9968 5.56006 59.994H5.69143C6.78719 59.9569 7.82024 59.4736 8.55075 58.6561L35.8166 28.0407L43.2841 34.6908C45.3475 36.523 48.5043 36.34 50.342 34.2821ZM44.6138 33.1969L37.1467 26.5468C36.7489 26.1971 36.2294 26.0172 35.7008 26.047C35.1712 26.0762 34.6751 26.3165 34.324 26.7138L7.05815 57.3242C6.69473 57.7361 6.17706 57.9787 5.62826 57.9943C5.07992 58.003 4.55035 57.7943 4.15535 57.4144C3.41248 56.5955 3.4253 55.3423 4.18464 54.5386L35.3268 19.5708L45.0335 28.2156C45.8583 28.9498 47.1216 28.877 47.8562 28.0526L54.3946 20.7123C55.105 19.8647 56.3481 19.7077 57.2475 20.3517C57.6769 20.694 57.9465 21.198 57.9931 21.7454C58.0403 22.2924 57.8595 22.8352 57.4942 23.2453L48.8494 32.952C47.7459 34.1869 45.8519 34.2963 44.6138 33.1969Z" fill="#FFF786"/>
<path d="M20.1368 14.0751L26.8569 20.0606C27.6817 20.7943 28.945 20.721 29.6796 19.8967L32.3394 16.9101C33.074 16.0853 33.0012 14.8211 32.1764 14.0861L23.2163 6.10633C21.1543 4.26999 17.9942 4.45308 16.1579 6.51506L7.5122 16.2222C6.78307 17.0433 6.42193 18.1272 6.5121 19.2216C6.60319 20.3164 7.1442 21.3248 8.00607 22.0063C8.69813 22.5592 9.55817 22.8581 10.4438 22.8544C11.6536 22.8471 12.8029 22.3235 13.6025 21.4154L20.1368 14.0751ZM9.25287 20.4455C8.82308 20.1031 8.55349 19.5992 8.50681 19.0518C8.46012 18.5043 8.64046 17.962 9.00571 17.5519L17.651 7.84517C18.1787 7.24877 18.9229 6.88901 19.7175 6.84507C19.7775 6.84507 19.8365 6.83912 19.8956 6.83912C20.6307 6.83775 21.3396 7.10917 21.8862 7.59984L30.8472 15.5773L28.1875 18.5638L21.4674 12.5784C20.6426 11.8447 19.3793 11.9179 18.6446 12.7422L12.1053 20.0857C11.3936 20.9307 10.1523 21.0872 9.25287 20.4455Z" fill="#FFF786"/>
<path d="M30.9255 58.841C31.6711 59.5857 32.6831 60.0027 33.7372 60H33.8672C34.9634 59.9633 35.9974 59.4805 36.7288 58.663L45.3736 48.9563C47.2104 46.8939 47.0273 43.7334 44.9649 41.897L36.0029 33.915C35.606 33.5644 35.0865 33.3845 34.5579 33.4152C34.0274 33.444 33.5308 33.6848 33.1793 34.083L30.5195 37.0686C29.7849 37.8934 29.8581 39.1581 30.6834 39.8923L37.4026 45.8736L30.8642 53.2139C29.3858 54.8077 29.4123 57.2798 30.9255 58.841ZM32.3613 54.5418L38.9025 47.2033C39.6366 46.3789 39.5634 45.1152 38.7395 44.3806L32.0153 38.3965L34.6751 35.4108L43.6348 43.3919C44.8715 44.4936 44.9813 46.3895 43.8796 47.6262L35.2348 57.3333C34.871 57.7444 34.3528 57.986 33.804 58.0011C33.2534 58.0263 32.7179 57.8153 32.332 57.4212C31.5887 56.6019 31.6011 55.3478 32.3613 54.5436V54.5418Z" fill="#FFF786"/>
<path d="M38.0164 15.721C39.6582 17.1912 41.7851 18.0022 43.989 17.999C44.1657 17.999 44.3438 17.9926 44.5218 17.983C48.8078 17.734 52.3212 14.4925 52.9135 10.2404C53.5058 5.98823 51.0117 1.91003 46.9568 0.499363C42.902 -0.910845 38.4155 0.739203 36.2409 4.44117C34.0668 8.14314 34.8101 12.8653 38.0164 15.7201V15.721ZM38.7743 4.34551C41.3453 1.45872 45.7695 1.20241 48.6563 3.77337C51.5431 6.34433 51.799 10.7686 49.228 13.6554C46.6575 16.5421 42.2332 16.798 39.3465 14.227C37.9573 12.9944 37.116 11.2592 37.0089 9.40505C36.9014 7.55086 37.5367 5.73008 38.7743 4.34551Z" fill="#FFF786"/>
<path d="M0.0071106 26.9976C0.0071106 27.5501 0.454752 27.9977 1.00675 27.9977H9.00571C9.55816 27.9977 10.0058 27.5501 10.0058 26.9976C10.0058 26.4456 9.55816 25.998 9.00571 25.998H1.00675C0.454752 25.998 0.0071106 26.4456 0.0071106 26.9976Z" fill="#FFF786"/>
<path d="M4.00659 30.9971C4.00659 31.5496 4.45423 31.9972 5.00623 31.9972H13.0052C13.5576 31.9972 14.0053 31.5496 14.0053 30.9971C14.0053 30.4451 13.5576 29.9975 13.0052 29.9975H5.00623C4.45423 29.9975 4.00659 30.4451 4.00659 30.9971Z" fill="#FFF786"/>
</g>
<defs>
<clipPath id="clip0">
<rect width="60" height="60" fill="white"/>
</clipPath>
</defs>
</svg>
