<svg width="64" height="64" viewBox="0 0 64 64" fill="none" xmlns="http://www.w3.org/2000/svg">
<g clip-path="url(#clip0)">
<path d="M32.3337 18.7748H42.23C43.0916 18.7748 43.7925 18.0739 43.7925 17.2123V7.27363C43.7925 6.41199 43.0916 5.71111 42.23 5.71111H32.3337C31.4721 5.71111 30.7712 6.41199 30.7712 7.27363V9.62517C30.7712 10.1431 31.1908 10.5627 31.7087 10.5627C32.2266 10.5627 32.6462 10.1431 32.6462 9.62517V7.58614H41.9175V16.8999H32.6462V14.136C32.6462 13.6181 32.2266 13.1985 31.7087 13.1985C31.1908 13.1985 30.7712 13.6181 30.7712 14.136V17.2124C30.7712 18.0739 31.4721 18.7748 32.3337 18.7748Z" fill="#FFF786"/>
<path d="M14.8731 17.2597H27.645C28.1629 17.2597 28.5825 16.84 28.5825 16.3222C28.5825 15.8043 28.1629 15.3846 27.645 15.3846H14.8731C14.3552 15.3846 13.9356 15.8043 13.9356 16.3222C13.9356 16.84 14.3554 17.2597 14.8731 17.2597Z" fill="#FFF786"/>
<path d="M36.2455 24.2478C36.2455 23.7299 35.8259 23.3103 35.308 23.3103H22.4201C21.9023 23.3103 21.4826 23.7299 21.4826 24.2478C21.4826 24.7657 21.9023 25.1853 22.4201 25.1853H35.308C35.8257 25.1853 36.2455 24.7656 36.2455 24.2478Z" fill="#FFF786"/>
<path d="M14.8731 13.1805H27.645C28.1629 13.1805 28.5825 12.7609 28.5825 12.243C28.5825 11.7251 28.1629 11.3055 27.645 11.3055H14.8731C14.3552 11.3055 13.9356 11.7251 13.9356 12.243C13.9356 12.7609 14.3554 13.1805 14.8731 13.1805Z" fill="#FFF786"/>
<path d="M14.8731 9.10129H27.645C28.1629 9.10129 28.5825 8.68165 28.5825 8.16377C28.5825 7.64588 28.1629 7.22625 27.645 7.22625H14.8731C14.3552 7.22625 13.9356 7.64588 13.9356 8.16377C13.9356 8.68165 14.3554 9.10129 14.8731 9.10129Z" fill="#FFF786"/>
<path d="M14.8731 35.5582H34.1053C34.6232 35.5582 35.0429 35.1386 35.0429 34.6207C35.0429 34.1028 34.6232 33.6832 34.1053 33.6832H14.8731C14.3552 33.6832 13.9356 34.1028 13.9356 34.6207C13.9356 35.1386 14.3554 35.5582 14.8731 35.5582Z" fill="#FFF786"/>
<path d="M14.8731 30.3135H30.0831C30.601 30.3135 31.0207 29.8939 31.0207 29.376C31.0207 28.8581 30.601 28.4385 30.0831 28.4385H14.8731C14.3552 28.4385 13.9356 28.8581 13.9356 29.376C13.9356 29.8939 14.3554 30.3135 14.8731 30.3135Z" fill="#FFF786"/>
<path d="M42.9131 28.4385H34.147C33.6291 28.4385 33.2095 28.8581 33.2095 29.376C33.2095 29.8939 33.6291 30.3135 34.147 30.3135H42.9131C43.431 30.3135 43.8506 29.8939 43.8506 29.376C43.8506 28.8581 43.4309 28.4385 42.9131 28.4385Z" fill="#FFF786"/>
<path d="M62.9108 57.9916C62.8994 57.9804 62.8877 57.9695 62.8758 57.9589L57.1066 52.8254C58.0181 51.1646 58.5384 49.3037 58.6075 47.3642C58.6259 46.8467 58.2213 46.4123 57.704 46.3938C57.1856 46.3784 56.7522 46.7799 56.7336 47.2973C56.5916 52.8199 51.914 57.3688 46.3803 57.3135C40.6677 57.3135 36.0201 52.6503 36.0201 46.9186C35.9335 41.3013 40.7705 36.4441 46.3803 36.5236C50.7503 36.5236 54.6727 39.2968 56.1406 43.4241C56.3141 43.9119 56.8507 44.1671 57.338 43.9934C57.8258 43.8199 58.0806 43.2838 57.9072 42.796C56.3413 38.3929 52.4085 35.2961 47.8573 34.7394V1.56253C47.8573 0.700887 47.1564 0 46.2948 0H11.4354C10.5738 0 9.87287 0.700887 9.87287 1.56253V4.95346H6.50094C5.6393 4.95346 4.93841 5.65435 4.93841 6.51599V9.9068H1.56635C0.70471 9.9068 0.00382233 10.6077 0.00382233 11.4693V58.2384C0.00382233 59.1 0.70471 59.8009 1.56635 59.8009H31.4185C32.2801 59.8009 32.981 59.1 32.981 58.2384V54.8475H37.051C39.297 57.5013 42.6457 59.1887 46.3804 59.1887C48.4327 59.1887 50.414 58.6813 52.1769 57.728L57.99 62.9344C59.3722 64.3037 61.6119 64.3794 62.9988 63.0106C64.3867 61.6842 64.3028 59.3035 62.9108 57.9916ZM11.7479 1.87503H45.9823V34.6565C41.9977 34.7864 38.3767 36.8581 36.2128 40.0936H32.4063C31.8884 40.0936 31.4688 40.5132 31.4688 41.0311C31.4688 41.549 31.8884 41.9686 32.4063 41.9686H35.1821C35.0566 42.2541 34.9409 42.5455 34.8364 42.8433C34.3777 44.1501 34.1452 45.5214 34.1452 46.9186C34.1452 47.2896 34.1627 47.6563 34.1949 48.0191H21.1519C22.4387 46.7863 23.2427 45.0507 23.2427 43.129V41.9687H28.3427C28.8606 41.9687 29.2802 41.5491 29.2802 41.0312C29.2802 40.5133 28.8606 40.0937 28.3427 40.0937H22.3052C21.7873 40.0937 21.3677 40.5133 21.3677 41.0312V43.129C21.3677 45.8254 19.1839 48.0191 16.4999 48.0191H11.7479V1.87503ZM6.81344 52.9723V40.157C6.81344 39.6391 6.39381 39.2194 5.87593 39.2194C5.35804 39.2194 4.93841 39.6391 4.93841 40.157V53.2848C4.93841 54.1465 5.6393 54.8473 6.50094 54.8473H31.106V57.9258H1.87886V11.7818H4.93841V36.1943C4.93841 36.7121 5.35804 37.1318 5.87593 37.1318C6.39381 37.1318 6.81344 36.7121 6.81344 36.1943V6.82849H9.873V48.9566C9.873 49.4745 10.2926 49.8941 10.8105 49.8941H34.5098C34.7818 50.985 35.1994 52.0185 35.7413 52.9724H6.81344V52.9723ZM61.679 61.6787C61.0303 62.3255 59.9298 62.2595 59.2594 61.554L53.807 56.6706C54.6487 56.0259 55.4248 55.2511 56.0703 54.413L61.6098 59.3422C62.249 59.9577 62.3232 61.0583 61.679 61.6787Z" fill="#FFF786"/>
<path d="M46.3793 38.9054C42.0532 38.8438 38.3222 42.5882 38.3879 46.9186C38.3879 51.337 41.9729 54.9316 46.3793 54.9316C50.7856 54.9316 54.3706 51.337 54.3706 46.9186C54.3706 42.5001 50.7856 38.9054 46.3793 38.9054ZM46.3793 53.0564C43.0069 53.0564 40.263 50.303 40.263 46.9184C40.2117 43.6019 43.0675 40.7335 46.3793 40.7803C49.7518 40.7803 52.4955 43.5338 52.4955 46.9184C52.4955 50.303 49.7519 53.0564 46.3793 53.0564Z" fill="#FFF786"/>
</g>
<defs>
<clipPath id="clip0">
<rect width="64" height="64" fill="white"/>
</clipPath>
</defs>
</svg>
