<svg width="64" height="64" viewBox="0 0 64 64" fill="none" xmlns="http://www.w3.org/2000/svg">
<path d="M61.89 60.677L59.06 49.367C59.0173 49.1906 58.9274 49.0292 58.8 48.9L41.894 32L44.317 29.577C44.632 29.2494 45.0164 28.9965 45.4419 28.8367C45.8674 28.677 46.3232 28.6146 46.776 28.654C48.8824 28.8955 51.0159 28.6186 52.9909 27.8472C54.9658 27.0759 56.7222 25.8335 58.1073 24.2283C59.4924 22.623 60.4642 20.7036 60.938 18.637C61.4119 16.5704 61.3734 14.4193 60.826 12.371C60.7805 12.2015 60.6912 12.0469 60.5671 11.9228C60.443 11.7987 60.2884 11.7095 60.1188 11.6641C59.9493 11.6187 59.7708 11.6187 59.6012 11.6642C59.4317 11.7096 59.2771 11.7989 59.153 11.923L52.182 18.894L46.29 17.71L45.105 11.818L52.077 4.847C52.2011 4.72289 52.2904 4.56831 52.3358 4.39877C52.3813 4.22924 52.3813 4.05073 52.3359 3.88119C52.2905 3.71164 52.2013 3.55703 52.0772 3.4329C51.9531 3.30876 51.7985 3.21947 51.629 3.174C49.5807 2.62675 47.4296 2.58844 45.363 3.06241C43.2965 3.53639 41.3771 4.50827 39.772 5.89347C38.1669 7.27866 36.9246 9.03519 36.1534 11.0101C35.3822 12.9851 35.1053 15.1186 35.347 17.225C35.386 17.6777 35.3233 18.1333 35.1634 18.5586C35.0035 18.9839 34.7505 19.3681 34.423 19.683L32 22.106L14.272 4.373C13.622 3.72295 12.8502 3.20731 12.0009 2.85551C11.1516 2.50371 10.2413 2.32264 9.322 2.32264C8.4027 2.32264 7.4924 2.50371 6.64308 2.85551C5.79375 3.20731 5.02204 3.72295 4.372 4.373C3.72195 5.02304 3.20631 5.79475 2.85451 6.64408C2.50271 7.4934 2.32164 8.4037 2.32164 9.323C2.32164 10.2423 2.50271 11.1526 2.85451 12.0019C3.20631 12.8512 3.72195 13.623 4.372 14.273L22.105 32L19.683 34.422C19.3687 34.7505 18.9844 35.0041 18.5587 35.1639C18.1331 35.3237 17.6769 35.3856 17.224 35.345C15.1175 35.1034 12.9838 35.3804 11.0088 36.1518C9.03379 36.9232 7.27726 38.1656 5.89213 39.771C4.507 41.3764 3.53527 43.296 3.06153 45.3627C2.58779 47.4294 2.6264 49.5806 3.174 51.629C3.21947 51.7985 3.30876 51.9531 3.4329 52.0772C3.55703 52.2013 3.71164 52.2905 3.88119 52.3359C4.05073 52.3813 4.22924 52.3813 4.39877 52.3358C4.56831 52.2904 4.72289 52.2011 4.847 52.077L11.818 45.106L17.71 46.29L18.9 52.182L11.928 59.153C11.8039 59.2771 11.7146 59.4317 11.6692 59.6012C11.6237 59.7708 11.6237 59.9493 11.6691 60.1188C11.7145 60.2884 11.8037 60.443 11.9278 60.5671C12.0519 60.6912 12.2065 60.7805 12.376 60.826C14.424 61.3723 16.5745 61.4098 18.6404 60.9354C20.7062 60.461 22.6249 59.4889 24.2293 58.1039C25.8338 56.7188 27.0756 54.9627 27.8466 52.9882C28.6175 51.0138 28.8944 48.8808 28.653 46.775C28.614 46.3223 28.6767 45.8667 28.8366 45.4414C28.9965 45.0161 29.2495 44.6319 29.577 44.317L32 41.894L48.9 58.8C49.028 58.9281 49.1884 59.019 49.364 59.063L60.674 61.893C60.7535 61.9128 60.8351 61.9229 60.917 61.923C61.069 61.923 61.219 61.8883 61.3556 61.8217C61.4922 61.755 61.6118 61.6581 61.7053 61.5382C61.7989 61.4184 61.8638 61.2788 61.8953 61.1301C61.9268 60.9814 61.9239 60.8275 61.887 60.68L61.89 60.677ZM54.449 58.27L50.606 57.308V53.655L52.946 54.123C53.1075 54.1554 53.2745 54.1473 53.4321 54.0996C53.5897 54.052 53.7331 53.9661 53.8496 53.8496C53.9661 53.7331 54.052 53.5897 54.0996 53.4321C54.1473 53.2745 54.1554 53.1075 54.123 52.946L53.654 50.606H57.308L58.269 54.448C57.4086 54.7966 56.6271 55.3145 55.9709 55.9711C55.3147 56.6277 54.7971 57.4095 54.449 58.27ZM51.513 50.1L51.867 51.868L50.1 51.514L16.4 17.814L17.809 16.4L51.513 50.1ZM35.837 21.1C36.3774 20.572 36.7927 19.9297 37.0522 19.2202C37.3118 18.5107 37.4091 17.752 37.337 17C37.15 15.3711 37.3291 13.721 37.8613 12.1701C38.3934 10.6193 39.2652 9.20683 40.413 8.03596C41.5608 6.86508 42.9556 5.96532 44.4955 5.40236C46.0355 4.8394 47.6817 4.62745 49.314 4.782L43.314 10.782C43.1974 10.8986 43.1115 11.0423 43.0638 11.2002C43.0162 11.3581 43.0083 11.5253 43.041 11.687L44.462 18.756C44.5007 18.9493 44.5957 19.1269 44.735 19.2664C44.8743 19.4059 45.0517 19.5011 45.245 19.54L52.314 20.959C52.4757 20.9917 52.6429 20.9838 52.8008 20.9362C52.9587 20.8885 53.1024 20.8026 53.219 20.686L59.219 14.686C59.3741 16.3183 59.1627 17.9645 58.6002 19.5047C58.0378 21.0448 57.1385 22.4399 55.968 23.588C54.7975 24.7362 53.3854 25.6084 51.8347 26.1411C50.284 26.6738 48.634 26.8535 47.005 26.667C46.253 26.5952 45.4944 26.6926 44.7849 26.9522C44.0755 27.2117 43.4331 27.6268 42.905 28.167L40.48 30.586L37.643 27.749C37.663 27.732 37.688 27.726 37.707 27.707L41.707 23.707C41.8892 23.5184 41.99 23.2658 41.9877 23.0036C41.9854 22.7414 41.8802 22.4906 41.6948 22.3052C41.5094 22.1198 41.2586 22.0146 40.9964 22.0123C40.7342 22.01 40.4816 22.1108 40.293 22.293L36.293 26.293C36.274 26.312 36.268 26.337 36.251 26.357L33.414 23.52L35.837 21.1ZM20.637 13.567L55.672 48.606H52.849L19.223 14.981L20.637 13.567ZM5.787 12.858C5.31937 12.3944 4.9479 11.8431 4.69393 11.2356C4.43995 10.6281 4.30847 9.97641 4.30703 9.31796C4.30558 8.65951 4.43421 8.00726 4.68552 7.39865C4.93684 6.79005 5.30588 6.23708 5.77148 5.77148C6.23708 5.30588 6.79005 4.93684 7.39866 4.68552C8.00726 4.43421 8.65951 4.30558 9.31796 4.30703C9.97641 4.30847 10.6281 4.43995 11.2356 4.69393C11.8431 4.9479 12.3944 5.31937 12.858 5.787L14.979 7.908L7.908 14.979L5.787 12.858ZM9.322 16.394L16.394 9.322L19.222 12.151L12.15 19.222L9.322 16.394ZM28.163 42.9C27.6226 43.428 27.2073 44.0703 26.9478 44.7798C26.6882 45.4893 26.5909 46.248 26.663 47C26.85 48.6289 26.6709 50.279 26.1387 51.8299C25.6066 53.3807 24.7348 54.7932 23.587 55.964C22.4392 57.1349 21.0444 58.0347 19.5045 58.5976C17.9645 59.1606 16.3183 59.3725 14.686 59.218L20.686 53.218C20.8028 53.1015 20.8889 52.9578 20.9367 52.7999C20.9845 52.642 20.9925 52.4747 20.96 52.313L19.54 45.243C19.5013 45.0497 19.4063 44.8721 19.267 44.7326C19.1277 44.5931 18.9503 44.4979 18.757 44.459L11.687 43.04C11.5261 43.0082 11.3598 43.0165 11.2029 43.0641C11.046 43.1117 10.9031 43.1972 10.787 43.313L4.787 49.313C4.6321 47.6809 4.84361 46.0348 5.40608 44.4949C5.96854 42.955 6.86778 41.5601 8.03813 40.4121C9.20849 39.2641 10.6204 38.3919 12.1709 37.8592C13.7214 37.3265 15.3712 37.1467 17 37.333C17.7521 37.4058 18.511 37.3089 19.2206 37.0493C19.9302 36.7896 20.5725 36.374 21.1 35.833L23.523 33.41L26.359 36.247C26.34 36.264 26.315 36.27 26.296 36.289L22.296 40.289C22.2005 40.3812 22.1243 40.4916 22.0719 40.6136C22.0195 40.7356 21.9919 40.8668 21.9907 40.9996C21.9896 41.1324 22.0149 41.2641 22.0652 41.387C22.1155 41.5099 22.1897 41.6215 22.2836 41.7154C22.3775 41.8093 22.4891 41.8835 22.612 41.9338C22.7349 41.9841 22.8666 42.0094 22.9994 42.0083C23.1322 42.0071 23.2634 41.9795 23.3854 41.9271C23.5074 41.8747 23.6178 41.7985 23.71 41.703L27.71 37.703C27.729 37.684 27.735 37.659 27.752 37.64L30.589 40.476L28.163 42.9ZM13.564 20.64L14.981 19.223L48.606 52.849V55.672L13.564 20.64ZM56.424 58.764C56.9004 57.7302 57.7302 56.9004 58.764 56.424L59.545 59.545L56.424 58.764Z" fill="#FFF786"/>
</svg>
